<svg width="25" height="25" viewBox="0 0 25 25" fill="none" xmlns="http://www.w3.org/2000/svg">
<path d="M4.58008 1.40039C5.65004 1.40039 6.56744 2.17444 6.83203 3.27246L7.25293 5.01758H21.2803C21.9852 5.01758 22.6613 5.3786 23.0957 5.9668H23.0967C23.499 6.48432 23.6592 7.13817 23.5801 7.77344L23.5322 8.04395L21.7949 15.623C21.5534 16.7241 20.6112 17.4971 19.543 17.4971H10.3018C9.23165 17.4971 8.31524 16.7223 8.05078 15.624H8.0498L5.22461 3.66504C5.14187 3.33584 4.8769 3.12598 4.58008 3.12598H2.21777C1.76329 3.12583 1.40039 2.73039 1.40039 2.2627C1.40048 1.79508 1.76334 1.40054 2.21777 1.40039H4.58008ZM9.6582 15.2334C9.74135 15.5618 10.0054 15.7715 10.3018 15.7715H19.543C19.8394 15.7715 20.1034 15.5618 20.1865 15.2334L21.9238 7.6543L21.9248 7.64941H21.9258C21.9851 7.43911 21.9268 7.22338 21.8008 7.04492C21.6796 6.87355 21.4777 6.76758 21.2803 6.76758H7.67188L9.6582 15.2334Z" fill="black" stroke="black" stroke-width="0.2"/>
<path d="M10.7883 18.2818C12.1693 18.282 13.2971 19.489 13.2971 20.941C13.297 22.3929 12.1692 23.6 10.7883 23.6002C9.40733 23.6002 8.27969 22.393 8.27954 20.941C8.27954 19.4889 9.40724 18.2818 10.7883 18.2818ZM10.7883 20.0318C10.3165 20.0318 9.93872 20.4245 9.93872 20.941C9.93886 21.4574 10.3165 21.8492 10.7883 21.8492C11.2368 21.849 11.6378 21.4327 11.6379 20.941C11.6379 20.4246 11.2601 20.032 10.7883 20.0318Z" fill="black" stroke="black" stroke-width="0.2"/>
<path d="M18.7561 20.0318C18.2842 20.0318 17.9065 20.4245 17.9065 20.941C17.9066 21.4574 18.2843 21.8492 18.7561 21.8492C19.2046 21.849 19.6056 21.4327 19.6057 20.941C19.6057 20.4246 19.2278 20.032 18.7561 20.0318ZM21.2649 20.941C21.2647 22.3929 20.137 23.6 18.7561 23.6002C17.3751 23.6002 16.2475 22.393 16.2473 20.941C16.2473 19.4889 17.375 18.2818 18.7561 18.2818C20.1384 18.282 21.241 19.4899 21.2649 20.9391V20.941Z" fill="black" stroke="black" stroke-width="0.2"/>
</svg>
