<svg width="14" height="21" viewBox="0 0 14 21" fill="none" xmlns="http://www.w3.org/2000/svg">
<path d="M7 20.5C6.76667 20.5 6.56667 20.4333 6.4 20.3C6.23333 20.1667 6.10833 19.9917 6.025 19.775C5.70833 18.8417 5.30833 17.9667 4.825 17.15C4.35833 16.3333 3.7 15.375 2.85 14.275C2 13.175 1.30833 12.125 0.775 11.125C0.258333 10.125 0 8.91667 0 7.5C0 5.55 0.675 3.9 2.025 2.55C3.39167 1.18333 5.05 0.5 7 0.5C8.95 0.5 10.6 1.18333 11.95 2.55C13.3167 3.9 14 5.55 14 7.5C14 9.01667 13.7083 10.2833 13.125 11.3C12.5583 12.3 11.9 13.2917 11.15 14.275C10.25 15.475 9.56667 16.475 9.1 17.275C8.65 18.0583 8.275 18.8917 7.975 19.775C7.89167 20.0083 7.75833 20.1917 7.575 20.325C7.40833 20.4417 7.21667 20.5 7 20.5ZM7 10C7.7 10 8.29167 9.75833 8.775 9.275C9.25833 8.79167 9.5 8.2 9.5 7.5C9.5 6.8 9.25833 6.20833 8.775 5.725C8.29167 5.24167 7.7 5 7 5C6.3 5 5.70833 5.24167 5.225 5.725C4.74167 6.20833 4.5 6.8 4.5 7.5C4.5 8.2 4.74167 8.79167 5.225 9.275C5.70833 9.75833 6.3 10 7 10Z" fill="#F0DCBC"/>
</svg>
