<svg width="28" height="29" viewBox="0 0 28 29" fill="none" xmlns="http://www.w3.org/2000/svg">
<path d="M25.969 11.4492C25.4872 11.0831 25.0743 10.637 24.7465 10.128C24.6047 9.51062 24.5776 8.87222 24.6676 8.24492C24.7465 7.01254 24.8253 5.6125 23.8986 4.68583C22.9718 3.75916 21.5718 3.83794 20.3395 3.91681C19.7122 4.00924 19.0726 3.97966 18.4564 3.82808C17.9437 3.50643 17.4951 3.09234 17.1352 2.60553C16.3071 1.65905 15.3704 0.584412 14 0.584412C12.6296 0.584412 11.6929 1.65905 10.8648 2.60553C10.5049 3.09234 10.0563 3.50643 9.54364 3.82808C8.92745 3.97966 8.28782 4.00924 7.66052 3.91681C6.42813 3.83794 5.0281 3.75906 4.10143 4.68583C3.17476 5.61259 3.25354 7.0126 3.33241 8.24492C3.42238 8.87222 3.39526 9.51059 3.25354 10.128C2.92571 10.637 2.51285 11.0831 2.031 11.4492C1.07467 12.2774 0 13.214 0 14.5844C0 15.9548 1.07464 16.8915 2.031 17.7196C2.51285 18.0857 2.92571 18.5318 3.25354 19.0408C3.39526 19.6582 3.42238 20.2966 3.33241 20.9239C3.25354 22.1563 3.17466 23.5563 4.10143 24.483C5.02819 25.4097 6.4282 25.3309 7.66052 25.252C8.28782 25.1645 8.92742 25.1941 9.54364 25.3407C10.0563 25.6624 10.5049 26.0765 10.8648 26.5633C11.6929 27.5098 12.6296 28.5844 14 28.5844C15.3704 28.5844 16.3071 27.5098 17.1352 26.5633C17.4951 26.0765 17.9437 25.6624 18.4564 25.3407C19.0725 25.1941 19.7122 25.1645 20.3395 25.252C21.5719 25.3309 22.9719 25.4098 23.8986 24.483C24.8252 23.5562 24.7465 22.1562 24.6676 20.9239C24.5776 20.2966 24.6047 19.6582 24.7465 19.0408C25.0743 18.5318 25.4872 18.0857 25.969 17.7196C26.9253 16.8915 28 15.9548 28 14.5844C28 13.214 26.9254 12.2774 25.969 11.4492ZM17.9435 20.5001C16.7468 20.5001 15.6685 19.7791 15.2112 18.6737C14.7528 17.5694 15.0066 16.2963 15.852 15.4509C16.6975 14.6055 17.9705 14.3516 19.0748 14.8101C20.1803 15.2673 20.9012 16.3456 20.9012 17.5423C20.8963 19.174 19.5752 20.4952 17.9435 20.5001ZM11.4856 18.3607C11.2675 18.2177 11.1146 17.9934 11.0629 17.7383C11.0111 17.4819 11.0641 17.217 11.2096 17.0001L15.1532 11.0846C15.2839 10.8405 15.5119 10.6619 15.7818 10.5941C16.0504 10.5263 16.3351 10.5756 16.5668 10.7284C16.7985 10.8824 16.9538 11.1252 16.9969 11.4001C17.0388 11.6736 16.9636 11.9534 16.7899 12.1691L12.8462 18.0846C12.665 18.3607 12.3582 18.527 12.0279 18.5282C11.8344 18.5307 11.6446 18.4716 11.4856 18.3607ZM7.09834 11.6267C7.09834 10.4301 7.81931 9.35174 8.92477 8.8945C10.029 8.43605 11.3021 8.68992 12.1475 9.53533C12.993 10.3808 13.2469 11.6538 12.7884 12.7581C12.3312 13.8636 11.2528 14.5845 10.0561 14.5845C8.42443 14.5796 7.10326 13.2585 7.09834 11.6267Z" fill="#F4A300"/>
</svg>
