<svg width="22" height="22" viewBox="0 0 22 22" fill="none" xmlns="http://www.w3.org/2000/svg">
<path d="M11 18.5937L9.77656 17.4968C8.35625 16.2172 7.18203 15.1132 6.25391 14.1851C5.32578 13.257 4.5875 12.4273 4.03906 11.6961C3.49063 10.9507 3.10391 10.2687 2.87891 9.64996C2.66797 9.03121 2.5625 8.3984 2.5625 7.75153C2.5625 6.42965 3.00547 5.32575 3.89141 4.43981C4.77734 3.55387 5.88125 3.1109 7.20313 3.1109C7.93438 3.1109 8.63047 3.26559 9.29141 3.57496C9.95234 3.88434 10.5219 4.32028 11 4.88278C11.4781 4.32028 12.0477 3.88434 12.7086 3.57496C13.3695 3.26559 14.0656 3.1109 14.7969 3.1109C16.1188 3.1109 17.2227 3.55387 18.1086 4.43981C18.9945 5.32575 19.4375 6.42965 19.4375 7.75153C19.4375 8.3984 19.325 9.03121 19.1 9.64996C18.8891 10.2687 18.5094 10.9507 17.9609 11.6961C17.4125 12.4273 16.6742 13.257 15.7461 14.1851C14.818 15.1132 13.6438 16.2172 12.2234 17.4968L11 18.5937ZM11 16.3156C12.35 15.1062 13.4609 14.0726 14.3328 13.2148C15.2047 12.3429 15.8938 11.5906 16.4 10.9578C16.9063 10.3109 17.2578 9.74137 17.4547 9.24918C17.6516 8.74293 17.75 8.24371 17.75 7.75153C17.75 6.90778 17.4688 6.20465 16.9062 5.64215C16.3438 5.07965 15.6406 4.7984 14.7969 4.7984C14.1359 4.7984 13.5242 4.98825 12.9617 5.36793C12.3992 5.73356 12.0125 6.20465 11.8016 6.78121H10.1984C9.9875 6.20465 9.60078 5.73356 9.03828 5.36793C8.47578 4.98825 7.86406 4.7984 7.20313 4.7984C6.35938 4.7984 5.65625 5.07965 5.09375 5.64215C4.53125 6.20465 4.25 6.90778 4.25 7.75153C4.25 8.24371 4.34844 8.74293 4.54531 9.24918C4.74219 9.74137 5.09375 10.3109 5.6 10.9578C6.10625 11.5906 6.79531 12.3429 7.66719 13.2148C8.53906 14.0726 9.65 15.1062 11 16.3156Z" fill="#F0DCBC"/>
</svg>
