<svg width="15" height="19" viewBox="0 0 15 19" fill="none" xmlns="http://www.w3.org/2000/svg">
<path d="M7.5 12C6.66667 12 5.95833 11.7083 5.375 11.125C4.79167 10.5417 4.5 9.83333 4.5 9V3C4.5 2.16667 4.79167 1.45833 5.375 0.875C5.95833 0.291667 6.66667 0 7.5 0C8.33333 0 9.04167 0.291667 9.625 0.875C10.2083 1.45833 10.5 2.16667 10.5 3V9C10.5 9.83333 10.2083 10.5417 9.625 11.125C9.04167 11.7083 8.33333 12 7.5 12ZM6.5 19V15.925C4.76667 15.6917 3.33333 14.9167 2.2 13.6C1.06667 12.2833 0.5 10.75 0.5 9H2.5C2.5 10.3833 2.9875 11.5625 3.9625 12.5375C4.9375 13.5125 6.11667 14 7.5 14C8.88333 14 10.0625 13.5125 11.0375 12.5375C12.0125 11.5625 12.5 10.3833 12.5 9H14.5C14.5 10.75 13.9333 12.2833 12.8 13.6C11.6667 14.9167 10.2333 15.6917 8.5 15.925V19H6.5Z" fill="#171717"/>
</svg>
