<svg width="32" height="32" viewBox="0 0 32 32" fill="none" xmlns="http://www.w3.org/2000/svg">
<rect width="32" height="32" rx="16" fill="#F0EDE5" fill-opacity="0.2"/>
<path d="M10 21.25V19.75H11.5V14.5C11.5 13.4625 11.8125 12.5437 12.4375 11.7437C13.0625 10.9312 13.875 10.4 14.875 10.15V9.625C14.875 9.3125 14.9813 9.05 15.1938 8.8375C15.4188 8.6125 15.6875 8.5 16 8.5C16.3125 8.5 16.575 8.6125 16.7875 8.8375C17.0125 9.05 17.125 9.3125 17.125 9.625V10.15C18.125 10.4 18.9375 10.9312 19.5625 11.7437C20.1875 12.5437 20.5 13.4625 20.5 14.5V19.75H22V21.25H10ZM16 23.5C15.5875 23.5 15.2313 23.3562 14.9313 23.0687C14.6438 22.7687 14.5 22.4125 14.5 22H17.5C17.5 22.4125 17.35 22.7687 17.05 23.0687C16.7625 23.3562 16.4125 23.5 16 23.5ZM13 19.75H19V14.5C19 13.675 18.7063 12.9687 18.1188 12.3812C17.5312 11.7937 16.825 11.5 16 11.5C15.175 11.5 14.4688 11.7937 13.8813 12.3812C13.2938 12.9687 13 13.675 13 14.5V19.75Z" fill="white"/>
</svg>
