<svg width="13" height="13" viewBox="0 0 13 13" fill="none" xmlns="http://www.w3.org/2000/svg">
<path d="M12.4157 6.86614L9.58386 5.24722V2.01059C9.58386 1.95082 9.5519 1.89575 9.49982 1.86645L6.5839 0.199536C6.53182 0.169653 6.4679 0.169653 6.41582 0.199536L3.49991 1.86645C3.44783 1.89575 3.41587 1.95082 3.41587 2.01059V5.24722L0.58404 6.86614C0.531959 6.89602 0.5 6.9511 0.5 7.01028V10.3437C0.5 10.4034 0.531959 10.4585 0.58404 10.4878L3.49995 12.1547C3.55203 12.1846 3.61654 12.1846 3.66863 12.1547L6.5 10.5364L9.33137 12.1547C9.38345 12.1846 9.44796 12.1846 9.50005 12.1547L12.416 10.4878C12.468 10.4585 12.5 10.4034 12.5 10.3437V7.01028C12.5 6.9511 12.468 6.89602 12.416 6.86614H12.4157ZM9.41568 8.48446L8.71023 8.08192L11.2893 6.60774L11.9948 7.01086L9.41568 8.48446ZM1.71016 6.60709L4.28927 8.08186L3.58383 8.48498L1.00471 7.01021L1.71016 6.60709ZM2.54227 6.1319L5.12093 7.60609L4.62617 7.88909L2.04705 6.4149L2.54227 6.1319ZM4.62611 1.6074L7.20522 3.08158L6.49977 3.4847L3.92066 2.01051L4.62611 1.6074ZM5.45763 1.13221L8.03674 2.60639L7.54198 2.88939L4.96286 1.41462L5.45763 1.13221ZM9.24713 2.29936V5.2471L7.8735 6.03225L6.66796 6.7213V3.77356L7.37164 3.37103V4.69757L7.37223 4.69699C7.37223 4.76906 7.41898 4.83351 7.48823 4.85577C7.55747 4.87804 7.63382 4.85402 7.67643 4.79542L8.00726 4.34719L8.18243 4.56984C8.22682 4.62668 8.30257 4.64953 8.37123 4.62609C8.43929 4.60266 8.48545 4.53879 8.48486 4.46731V2.73529L9.24713 2.29936ZM8.14693 3.98158L8.13568 3.96752V3.96693C8.10373 3.92592 8.05342 3.90189 8.00016 3.90306C7.94748 3.90365 7.89836 3.92885 7.867 3.97162L7.70838 4.18665L7.70897 3.17827L8.14751 2.92749L8.14693 3.98158ZM6.33187 3.77358V6.72192L5.87024 6.45825L5.21094 6.08092V4.88094H5.21035C5.21153 4.83583 5.19496 4.79188 5.163 4.75966C5.13104 4.72743 5.08784 4.70868 5.04227 4.70868C4.9967 4.70868 4.9529 4.72743 4.92094 4.75966C4.88958 4.79188 4.87242 4.83583 4.8736 4.88094V5.88814L4.45459 5.64791V4.44793C4.45459 4.35536 4.37943 4.28094 4.28651 4.28094C4.19359 4.28094 4.11783 4.35535 4.11783 4.44793V5.4569L3.75267 5.24715V2.29941L6.33187 3.77358ZM3.58398 5.53604L6.16309 7.01023L5.45764 7.41334L2.87898 5.93916L3.58398 5.53604ZM4.79308 8.17854L5.23162 7.92776V8.98125L5.22038 8.96718C5.18783 8.92558 5.13752 8.90156 5.08485 8.90273C5.03218 8.90332 4.98246 8.9291 4.9511 8.97128L4.79307 9.18573L4.79308 8.17854ZM3.75265 8.77324L4.45633 8.37071V9.69726C4.45633 9.76932 4.50308 9.83319 4.57232 9.85546C4.64157 9.87772 4.71791 9.8537 4.76053 9.79511L5.09136 9.34629L5.26653 9.56894H5.26712C5.31092 9.62519 5.38667 9.64746 5.45474 9.6246C5.5228 9.60117 5.56837 9.53789 5.56837 9.4664V7.73559L6.33183 7.29907V10.2474L3.75271 11.7216L3.75265 8.77324ZM9.41585 5.53601L10.1207 5.93913L7.54205 7.41331L6.8366 7.0102L9.41585 5.53601ZM7.76821 7.92771L8.20675 8.17849V9.18569L8.04813 8.97065L8.04872 8.97124C8.01736 8.92905 7.96764 8.90327 7.91497 8.90269C7.8623 8.9021 7.81199 8.92554 7.77944 8.96714L7.7682 8.9812L7.76821 7.92771ZM7.87828 7.60604L10.4574 6.13186L10.9522 6.41486L8.3735 7.88846L7.87828 7.60604ZM6.49992 0.53624L9.07903 2.01042L8.37358 2.41354L5.79447 0.939356L6.49992 0.53624ZM0.836715 7.299L3.41583 8.77318V11.7215L2.29491 11.0805V9.88055H2.29432C2.29432 9.78856 2.21916 9.71414 2.12624 9.71414C2.03332 9.71414 1.95816 9.78856 1.95816 9.88055V10.8877L1.53915 10.6475V9.44754H1.53856C1.53856 9.35555 1.4634 9.28113 1.37047 9.28113C1.27755 9.28113 1.2018 9.35555 1.2018 9.44754V10.4547L0.836637 10.2462L0.836715 7.299ZM6.66794 7.299L7.4314 7.73552V9.46634C7.4314 9.53782 7.47697 9.6011 7.54503 9.62454C7.61309 9.64739 7.68884 9.62512 7.73264 9.56887L7.90781 9.34622L8.23865 9.79504H8.23924C8.28185 9.85363 8.3582 9.87765 8.42744 9.85539C8.49668 9.83312 8.54344 9.76926 8.54344 9.69719V8.37065L9.24711 8.77318V11.7215L6.668 10.2473L6.66794 7.299ZM11.7978 10.456V9.44878C11.7978 9.35679 11.7221 9.28238 11.6292 9.28238C11.5362 9.28238 11.4611 9.35679 11.4611 9.44878V10.6488L11.0421 10.889L11.0415 9.8812C11.0415 9.78921 10.9663 9.71479 10.8734 9.71479C10.7805 9.71479 10.7053 9.7892 10.7053 9.8812V11.0812L9.5844 11.7222L9.5838 8.77323L12.1629 7.29904V10.2474L11.7978 10.456Z" fill="white"/>
</svg>
