<svg width="32" height="32" viewBox="0 0 32 32" fill="none" xmlns="http://www.w3.org/2000/svg">
<rect width="32" height="32" rx="16" fill="#F0EDE5" fill-opacity="0.2"/>
<path d="M16 22.7501L14.9125 21.7751C13.65 20.6376 12.6063 19.6563 11.7812 18.8313C10.9563 18.0063 10.3 17.2688 9.8125 16.6188C9.325 15.9563 8.98125 15.35 8.78125 14.8C8.59375 14.25 8.5 13.6875 8.5 13.1125C8.5 11.9375 8.89375 10.9563 9.68125 10.1688C10.4688 9.3813 11.45 8.98755 12.625 8.98755C13.275 8.98755 13.8938 9.12505 14.4813 9.40005C15.0688 9.67505 15.575 10.0625 16 10.5625C16.425 10.0625 16.9313 9.67505 17.5188 9.40005C18.1063 9.12505 18.725 8.98755 19.375 8.98755C20.55 8.98755 21.5313 9.3813 22.3188 10.1688C23.1063 10.9563 23.5 11.9375 23.5 13.1125C23.5 13.6875 23.4 14.25 23.2 14.8C23.0125 15.35 22.675 15.9563 22.1875 16.6188C21.7 17.2688 21.0438 18.0063 20.2188 18.8313C19.3938 19.6563 18.35 20.6376 17.0875 21.7751L16 22.7501ZM16 20.725C17.2 19.6501 18.1875 18.7313 18.9625 17.9688C19.7375 17.1938 20.35 16.525 20.8 15.9625C21.25 15.3875 21.5625 14.8813 21.7375 14.4438C21.9125 13.9938 22 13.55 22 13.1125C22 12.3625 21.75 11.7375 21.25 11.2375C20.75 10.7375 20.125 10.4875 19.375 10.4875C18.7875 10.4875 18.2438 10.6563 17.7438 10.9938C17.2438 11.3188 16.9 11.7375 16.7125 12.25H15.2875C15.1 11.7375 14.7563 11.3188 14.2563 10.9938C13.7563 10.6563 13.2125 10.4875 12.625 10.4875C11.875 10.4875 11.25 10.7375 10.75 11.2375C10.25 11.7375 10 12.3625 10 13.1125C10 13.55 10.0875 13.9938 10.2625 14.4438C10.4375 14.8813 10.75 15.3875 11.2 15.9625C11.65 16.525 12.2625 17.1938 13.0375 17.9688C13.8125 18.7313 14.8 19.6501 16 20.725Z" fill="white"/>
</svg>
