<svg width="13" height="12" viewBox="0 0 13 12" fill="none" xmlns="http://www.w3.org/2000/svg">
<path d="M6.5 0.400391C8.15187 0.400398 9.50586 1.63244 9.50586 3.16992C9.50581 3.30094 9.45462 3.41697 9.37402 3.50879H10.3438C11.3055 3.50891 12.0995 4.22748 12.0996 5.13086C12.0996 5.24431 12.087 5.3579 12.0615 5.46875L11.0693 9.78027C10.8238 10.8465 9.80276 11.5996 8.63184 11.5996H4.36816C3.19725 11.5996 2.17621 10.8465 1.93066 9.78027L0.938477 5.46875C0.912955 5.35787 0.900391 5.24429 0.900391 5.13086C0.900516 4.22746 1.6945 3.50887 2.65625 3.50879H3.62598C3.54538 3.41697 3.49419 3.30094 3.49414 3.16992C3.49414 1.63244 4.84813 0.400391 6.5 0.400391ZM2.65625 4.58789C2.31695 4.58798 2.05677 4.83888 2.05664 5.13086C2.05664 5.168 2.06095 5.20576 2.06934 5.24219L3.06152 9.55371C3.19029 10.1123 3.73129 10.5215 4.36816 10.5215H8.63184C9.2687 10.5215 9.8097 10.1123 9.93848 9.55371L10.9307 5.24219V5.24121C10.939 5.20498 10.9434 5.16791 10.9434 5.13086C10.9432 4.83891 10.6831 4.58801 10.3438 4.58789H2.65625ZM6.5 1.47852C5.47056 1.47852 4.65039 2.24387 4.65039 3.16992C4.65034 3.30106 4.59928 3.41694 4.51855 3.50879H8.48145C8.40072 3.41694 8.34966 3.30106 8.34961 3.16992C8.34961 2.24387 7.52943 1.47852 6.5 1.47852Z" fill="black" stroke="black" stroke-width="0.2"/>
</svg>
