<svg width="32" height="32" viewBox="0 0 32 32" fill="none" xmlns="http://www.w3.org/2000/svg">
<rect width="32" height="32" rx="16" fill="#F0EDE5" fill-opacity="0.2"/>
<path d="M10.96 8.90039C11.6595 8.90039 12.2569 9.40663 12.4287 10.1201L12.6895 11.2021H21.5879C22.0494 11.2023 22.4908 11.4386 22.7734 11.8223H22.7725C23.0713 12.2077 23.1651 12.7077 23.0557 13.1729L21.9502 17.9951C21.7931 18.7115 21.1801 19.2166 20.4824 19.2168H14.6006C13.9012 19.2166 13.3046 18.7094 13.1328 17.9961L11.335 10.3867C11.286 10.1916 11.1305 10.0713 10.96 10.0713H9.45703C9.14561 10.0713 8.90039 9.80101 8.90039 9.48535C8.90045 9.16974 9.14565 8.90039 9.45703 8.90039H10.96ZM14.2266 17.7295L14.25 17.7988C14.3148 17.9526 14.4515 18.0457 14.6006 18.0459H20.4824C20.6529 18.0457 20.8075 17.9245 20.8564 17.7295L21.9619 12.9082L21.9629 12.9033L21.9766 12.8125C21.9783 12.721 21.9453 12.6301 21.8887 12.5498C21.8181 12.45 21.7011 12.3888 21.5879 12.3887H12.9736L14.2266 17.7295Z" fill="white" stroke="white" stroke-width="0.2"/>
<path d="M14.9109 19.6432C15.8118 19.6434 16.5437 20.4298 16.5437 21.3717C16.5436 22.3135 15.8117 23.1 14.9109 23.1002C14.01 23.1002 13.2782 22.3136 13.2781 21.3717C13.2781 20.4297 14.0099 19.6432 14.9109 19.6432ZM14.9109 20.8297C14.6327 20.8297 14.406 21.061 14.406 21.3717C14.4061 21.6823 14.6328 21.9137 14.9109 21.9137C15.1741 21.9135 15.4146 21.6666 15.4148 21.3717C15.4148 21.0611 15.1889 20.8299 14.9109 20.8297Z" fill="white" stroke="white" stroke-width="0.2"/>
<path d="M19.9812 20.8297C19.703 20.8297 19.4763 21.061 19.4763 21.3717C19.4764 21.6823 19.7031 21.9137 19.9812 21.9137C20.2444 21.9135 20.485 21.6666 20.4851 21.3717C20.4851 21.0611 20.2592 20.8299 19.9812 20.8297ZM21.614 21.3717C21.6139 22.3135 20.882 23.1 19.9812 23.1002C19.0803 23.1002 18.3485 22.3136 18.3484 21.3717C18.3484 20.4297 19.0802 19.6432 19.9812 19.6432C20.8834 19.6434 21.5985 20.4307 21.614 21.3698V21.3717Z" fill="white" stroke="white" stroke-width="0.2"/>
</svg>
