<svg width="12" height="13" viewBox="0 0 12 13" fill="none" xmlns="http://www.w3.org/2000/svg">
<path d="M5.22128 2.32255C5.42833 1.68532 6.32984 1.68532 6.53689 2.32255L7.04374 3.88246C7.13633 4.16744 7.4019 4.36038 7.70154 4.36038H9.34173C10.0118 4.36038 10.2903 5.21777 9.74828 5.61161L8.42134 6.57568C8.17892 6.75181 8.07748 7.064 8.17008 7.34898L8.67692 8.90889C8.88397 9.54612 8.15464 10.076 7.61257 9.68219L6.28563 8.71811C6.04322 8.54198 5.71496 8.54198 5.47254 8.71811L4.1456 9.68219C3.60354 10.076 2.8742 9.54612 3.08125 8.90889L3.5881 7.34898C3.68069 7.064 3.57926 6.75181 3.33684 6.57568L2.0099 5.61161C1.46784 5.21777 1.74642 4.36038 2.41645 4.36038H4.05663C4.35628 4.36038 4.62184 4.16744 4.71444 3.88246L5.22128 2.32255Z" fill="white"/>
</svg>
