<svg width="22" height="21" viewBox="0 0 22 21" fill="none" xmlns="http://www.w3.org/2000/svg">
<path d="M11 18.0937L9.77656 16.9969C8.35625 15.7172 7.18203 14.6133 6.25391 13.6852C5.32578 12.757 4.5875 11.9273 4.03906 11.1961C3.49063 10.4508 3.10391 9.76874 2.87891 9.14999C2.66797 8.53124 2.5625 7.89843 2.5625 7.25156C2.5625 5.92968 3.00547 4.82578 3.89141 3.93984C4.77734 3.0539 5.88125 2.61093 7.20313 2.61093C7.93438 2.61093 8.63047 2.76562 9.29141 3.07499C9.95234 3.38437 10.5219 3.82031 11 4.38281C11.4781 3.82031 12.0477 3.38437 12.7086 3.07499C13.3695 2.76562 14.0656 2.61093 14.7969 2.61093C16.1188 2.61093 17.2227 3.0539 18.1086 3.93984C18.9945 4.82578 19.4375 5.92968 19.4375 7.25156C19.4375 7.89843 19.325 8.53124 19.1 9.14999C18.8891 9.76874 18.5094 10.4508 17.9609 11.1961C17.4125 11.9273 16.6742 12.757 15.7461 13.6852C14.818 14.6133 13.6438 15.7172 12.2234 16.9969L11 18.0937ZM11 15.8156C12.35 14.6062 13.4609 13.5727 14.3328 12.7148C15.2047 11.843 15.8938 11.0906 16.4 10.4578C16.9063 9.81093 17.2578 9.2414 17.4547 8.74921C17.6516 8.24296 17.75 7.74374 17.75 7.25156C17.75 6.40781 17.4688 5.70468 16.9062 5.14218C16.3438 4.57968 15.6406 4.29843 14.7969 4.29843C14.1359 4.29843 13.5242 4.48828 12.9617 4.86796C12.3992 5.23359 12.0125 5.70468 11.8016 6.28124H10.1984C9.9875 5.70468 9.60078 5.23359 9.03828 4.86796C8.47578 4.48828 7.86406 4.29843 7.20313 4.29843C6.35938 4.29843 5.65625 4.57968 5.09375 5.14218C4.53125 5.70468 4.25 6.40781 4.25 7.25156C4.25 7.74374 4.34844 8.24296 4.54531 8.74921C4.74219 9.2414 5.09375 9.81093 5.6 10.4578C6.10625 11.0906 6.79531 11.843 7.66719 12.7148C8.53906 13.5727 9.65 14.6062 11 15.8156Z" fill="white"/>
</svg>
