<svg width="10" height="8" viewBox="0 0 10 8" fill="none" xmlns="http://www.w3.org/2000/svg">
<path fill-rule="evenodd" clip-rule="evenodd" d="M7.25886 1.56269L5.1972 0.0646516C5.07862 -0.0215505 4.92171 -0.0215505 4.80314 0.0646516L0.221056 3.39342C-0.0218906 3.56973 -0.0722625 3.90496 0.108275 4.1418C0.28881 4.37907 0.632056 4.42783 0.874558 4.25151L4.80274 1.39776C4.92132 1.31156 5.07823 1.31156 5.1968 1.39776L9.12544 4.25196C9.36839 4.42828 9.71119 4.37908 9.89173 4.14225C10.0723 3.90497 10.0219 3.57018 9.77895 3.39386L8.32394 2.3368L8.32438 0.968935C8.32438 0.791301 8.17594 0.646335 7.99407 0.646335H7.58885C7.40697 0.646335 7.25854 0.791312 7.25854 0.968935L7.25886 1.56269ZM8.52706 4.36428V7.65694C8.52706 7.84545 8.36926 7.99956 8.17624 7.99956L6.42612 8V6.13361C6.42612 5.74613 6.10159 5.42876 5.70441 5.42876H4.29573C3.89899 5.42876 3.57403 5.74614 3.57403 6.13361V8H1.82391C1.63089 8 1.47308 7.84588 1.47308 7.65737V4.36427L5.00003 1.80219L8.52706 4.36428Z" fill="#F0DCBC"/>
</svg>
