<svg width="10" height="9" viewBox="0 0 10 9" fill="none" xmlns="http://www.w3.org/2000/svg">
<path d="M4.4631 1.02452C4.67015 0.387285 5.57167 0.387285 5.77872 1.02452L6.28556 2.58443C6.37816 2.86941 6.64372 3.06235 6.94337 3.06235H8.58355C9.25358 3.06235 9.53216 3.91974 8.9901 4.31357L7.66316 5.27765C7.42074 5.45377 7.31931 5.76597 7.4119 6.05094L7.91875 7.61085C8.1258 8.24809 7.39646 8.77798 6.85439 8.38415L5.52746 7.42007C5.28504 7.24395 4.95678 7.24395 4.71436 7.42007L3.38742 8.38415C2.84536 8.77798 2.11602 8.24809 2.32307 7.61085L2.82992 6.05094C2.92251 5.76597 2.82108 5.45377 2.57866 5.27765L1.25172 4.31357C0.70966 3.91974 0.988242 3.06235 1.65827 3.06235H3.29845C3.5981 3.06235 3.86366 2.86941 3.95626 2.58443L4.4631 1.02452Z" fill="#F4A300"/>
</svg>
