<svg width="22" height="23" viewBox="0 0 22 23" fill="none" xmlns="http://www.w3.org/2000/svg">
<path d="M21.7766 13.0965L16.6178 10.1176V4.16211C16.6178 4.05214 16.5596 3.95079 16.4648 3.89689L11.1528 0.829691C11.058 0.774706 10.9415 0.774706 10.8467 0.829691L5.53474 3.89689C5.43987 3.95079 5.38165 4.05214 5.38165 4.16211V10.1176L0.222919 13.0965C0.128044 13.1515 0.0698242 13.2529 0.0698242 13.3617V19.4953C0.0698242 19.6053 0.128044 19.7066 0.222919 19.7605L5.53483 22.8277C5.6297 22.8827 5.74722 22.8827 5.8421 22.8277L11 19.85L16.1579 22.8277C16.2528 22.8827 16.3703 22.8827 16.4652 22.8277L21.7771 19.7605C21.872 19.7066 21.9302 19.6053 21.9302 19.4953V13.3617C21.9302 13.2529 21.872 13.1515 21.7771 13.0965H21.7766ZM16.3115 16.0743L15.0264 15.3336L19.7247 12.6211L21.0098 13.3628L16.3115 16.0743ZM2.27437 12.6199L6.97273 15.3335L5.68762 16.0753L0.989257 13.3616L2.27437 12.6199ZM3.79022 11.7455L8.48775 14.4581L7.58644 14.9788L2.88809 12.2662L3.79022 11.7455ZM7.58634 3.42022L12.2847 6.13278L10.9996 6.87453L6.30122 4.16197L7.58634 3.42022ZM9.10111 2.54585L13.7995 5.25841L12.8982 5.77914L8.1998 3.0655L9.10111 2.54585ZM16.0044 4.69346V10.1174L13.5021 11.5621L11.306 12.83V7.40605L12.5879 6.66538V9.10627L12.5889 9.10519C12.5889 9.2378 12.6741 9.3564 12.8002 9.39737C12.9264 9.43834 13.0655 9.39413 13.1431 9.28632L13.7458 8.46155L14.0649 8.87124C14.1457 8.97582 14.2837 9.01787 14.4088 8.97474C14.5328 8.93162 14.6169 8.8141 14.6158 8.68257V5.49559L16.0044 4.69346ZM14.0002 7.78881L13.9797 7.76294V7.76186C13.9215 7.68639 13.8299 7.64219 13.7328 7.64434C13.6369 7.64542 13.5474 7.69178 13.4902 7.77048L13.2013 8.16616L13.2024 6.31069L14.0013 5.84924L14.0002 7.78881ZM10.6937 7.40608V12.8312L9.85277 12.346L8.65172 11.6517V9.44368H8.65065C8.6528 9.36067 8.62262 9.27981 8.5644 9.22051C8.50618 9.16122 8.42747 9.12672 8.34446 9.12672C8.26144 9.12672 8.18166 9.16122 8.12344 9.22051C8.0663 9.27981 8.03503 9.36067 8.03719 9.44368V11.297L7.27388 10.8549V8.64692C7.27388 8.47658 7.13696 8.33965 6.96769 8.33965C6.79841 8.33965 6.66042 8.47657 6.66042 8.64692V10.5035L5.9952 10.1175V4.69355L10.6937 7.40608ZM5.68789 10.6491L10.3863 13.3617L9.10114 14.1034L4.40361 11.3908L5.68789 10.6491ZM7.89051 15.5114L8.6894 15.0499V16.9884L8.66891 16.9625C8.60962 16.886 8.51798 16.8418 8.42202 16.8439C8.32607 16.845 8.23551 16.8925 8.17837 16.9701L7.8905 17.3647L7.89051 15.5114ZM5.99516 16.6057L7.27705 15.865V18.3059C7.27705 18.4385 7.36222 18.556 7.48836 18.597C7.6145 18.638 7.75358 18.5938 7.83121 18.4859L8.43388 17.6601L8.753 18.0698H8.75407C8.83385 18.1733 8.97185 18.2143 9.09585 18.1722C9.21983 18.1291 9.30285 18.0127 9.30285 17.8811V14.6963L10.6936 13.8931V19.3182L5.99528 22.0308L5.99516 16.6057ZM16.3118 10.649L17.5958 11.3908L12.8983 14.1033L11.6132 13.3616L16.3118 10.649ZM13.3103 15.0499L14.1092 15.5113V17.3646L13.8202 16.9689L13.8213 16.97C13.7642 16.8924 13.6736 16.8449 13.5776 16.8439C13.4817 16.8428 13.3901 16.8859 13.3308 16.9625L13.3103 16.9883L13.3103 15.0499ZM13.5108 14.458L18.2092 11.7454L19.1105 12.2661L14.413 14.9776L13.5108 14.458ZM10.9998 1.44924L15.6982 4.1618L14.4131 4.90355L9.71473 2.19099L10.9998 1.44924ZM0.683216 13.893L5.38158 16.6056V22.0306L3.33961 20.8512V18.6432H3.33853C3.33853 18.4739 3.20161 18.337 3.03234 18.337C2.86307 18.337 2.72614 18.4739 2.72614 18.6432V20.4965L1.96284 20.0544V17.8464H1.96176C1.96176 17.6771 1.82484 17.5402 1.65556 17.5402C1.48629 17.5402 1.34829 17.6771 1.34829 17.8464V19.6997L0.683075 19.3159L0.683216 13.893ZM11.3059 13.893L12.6967 14.6962V17.881C12.6967 18.0125 12.7797 18.129 12.9037 18.1721C13.0277 18.2141 13.1657 18.1732 13.2455 18.0697L13.5646 17.66L14.1673 18.4858H14.1684C14.246 18.5936 14.3851 18.6378 14.5112 18.5969C14.6374 18.5559 14.7225 18.4384 14.7225 18.3058V15.8649L16.0044 16.6056V22.0306L11.306 19.3181L11.3059 13.893ZM20.651 19.702V17.8487C20.651 17.6794 20.513 17.5425 20.3438 17.5425C20.1745 17.5425 20.0376 17.6794 20.0376 17.8487V20.0567L19.2743 20.4988L19.2732 18.6444C19.2732 18.4751 19.1363 18.3382 18.967 18.3382C18.7977 18.3382 18.6608 18.4751 18.6608 18.6444V20.8524L16.6188 22.0318L16.6178 16.6057L21.3161 13.8931V19.3182L20.651 19.702Z" fill="#F0DCBC"/>
</svg>
