<svg width="9" height="11" viewBox="0 0 9 11" fill="none" xmlns="http://www.w3.org/2000/svg">
<path d="M7.8125 4.625C8.32031 4.625 8.75 5.05469 8.75 5.5625V9.3125C8.75 9.83984 8.32031 10.25 7.8125 10.25H0.9375C0.410156 10.25 0 9.83984 0 9.3125V5.5625C0 5.05469 0.410156 4.625 0.9375 4.625H1.40625V3.21875C1.40625 1.59766 2.73438 0.25 4.375 0.25C5.99609 0.25 7.34375 1.59766 7.34375 3.21875V4.625H7.8125ZM5.78125 4.625V3.21875C5.78125 2.45703 5.13672 1.8125 4.375 1.8125C3.59375 1.8125 2.96875 2.45703 2.96875 3.21875V4.625H5.78125Z" fill="#F4A300"/>
</svg>
