<svg width="10" height="13" viewBox="0 0 10 13" fill="none" xmlns="http://www.w3.org/2000/svg">
<path d="M9.29036 5.79262C9.179 5.56982 8.9574 5.43093 8.71194 5.43093H5.883L6.13981 1.01078C6.15686 0.715638 5.9847 0.450008 5.71141 0.349905C5.43811 0.250367 5.13981 0.343539 4.96822 0.581964L0.764876 6.44537C0.61999 6.64734 0.599537 6.91122 0.710899 7.13402C0.822262 7.3574 1.04386 7.49571 1.28931 7.49571H4.08815L3.83077 11.9569C3.81372 12.2515 3.98588 12.5171 4.25861 12.6172C4.3319 12.6438 4.4069 12.6571 4.48019 12.6571C4.68246 12.6571 4.87622 12.5605 5.00121 12.3857L9.23467 6.48172C9.37955 6.28032 9.40057 6.01586 9.28978 5.79307L9.29036 5.79262Z" fill="#258B61"/>
</svg>
